<svg width="23" height="23" viewBox="0 0 23 23" fill="none" xmlns="http://www.w3.org/2000/svg">
<path d="M11.5 3.44241C8.81714 3.44241 6.63452 5.62503 6.63452 8.30785C6.63452 9.6099 7.148 11.0874 8.00809 12.2601C8.9809 13.5866 10.2211 14.3172 11.5 14.3172C12.7789 14.3172 14.019 13.5867 14.9919 12.2601C15.852 11.0874 16.3655 9.6099 16.3655 8.30785C16.3655 5.62503 14.1828 3.44241 11.5 3.44241ZM11.5 13.2798C10.5735 13.2798 9.60572 12.6846 8.84459 11.6467C8.12123 10.6604 7.67185 9.381 7.67185 8.30785C7.67185 6.19701 9.38912 4.47975 11.5 4.47975C13.6108 4.47975 15.3281 6.19701 15.3281 8.30785C15.3281 10.4995 13.5257 13.2798 11.5 13.2798Z" fill="black"/>
<path d="M11.5 0C5.15893 0 0 5.15886 0 11.5C0 17.8411 5.15886 23 11.5 23C17.8411 23 23 17.8411 23 11.5C23 5.15886 17.8411 0 11.5 0ZM11.5 21.9627C9.41849 21.9626 7.47716 21.3514 5.84564 20.2993C5.90235 18.7109 6.62143 17.2217 7.83898 16.1878C8.32279 15.7769 9.02928 15.732 9.59705 16.0761C10.2103 16.4477 10.8506 16.6362 11.5002 16.6362C12.1496 16.6362 12.7897 16.4478 13.4027 16.0764C13.9699 15.7327 14.6745 15.7759 15.156 16.1839C16.3745 17.2164 17.0977 18.7099 17.1543 20.2995C15.5228 21.3515 13.5814 21.9627 11.5 21.9627ZM18.1321 19.5861C17.9081 17.9621 17.094 16.4664 15.8266 15.3925C15.0044 14.6958 13.8142 14.6141 12.8651 15.1892C11.9679 15.7329 11.0321 15.7328 10.1347 15.189C9.18447 14.6131 7.99216 14.6968 7.16748 15.3971C5.90124 16.4724 5.0904 17.9638 4.86702 19.5854C2.53033 17.6649 1.03733 14.7536 1.03733 11.5001C1.03733 5.73084 5.73091 1.03733 11.5 1.03733C17.2692 1.03733 21.9627 5.73084 21.9627 11.5C21.9627 14.754 20.4693 17.6656 18.1321 19.5861Z" fill="black"/>
</svg>
