<svg width="18" height="20" viewBox="0 0 18 20" fill="none" xmlns="http://www.w3.org/2000/svg">
<path d="M4.15788 0H3.65562C3.59153 0 3.53075 0.0134666 3.47187 0.0326016C3.17767 0.128015 2.96021 0.442104 2.96021 0.818874V1.16462V2.04958V2.51C2.96021 2.59555 2.97446 2.67638 2.99513 2.75377C3.08367 3.08621 3.34418 3.32887 3.65562 3.32887H4.15788C4.54202 3.32887 4.85329 2.96229 4.85329 2.51V2.04958V1.16462V0.818874C4.85329 0.36658 4.54202 0 4.15788 0Z" fill="black"/>
<path d="M14.0439 0H13.5416C13.1575 0 12.8462 0.36658 12.8462 0.818874V1.16462V2.04958V2.51C12.8462 2.96229 13.1575 3.32887 13.5416 3.32887H14.0439C14.428 3.32887 14.7393 2.96229 14.7393 2.51V2.04958V1.16462V0.818874C14.7391 0.36658 14.4278 0 14.0439 0Z" fill="black"/>
<path d="M16.6094 2.04968H15.3658V2.5101C15.3658 3.30719 14.7727 3.95562 14.0438 3.95562H13.5415C12.8126 3.95562 12.2194 3.30719 12.2194 2.5101V2.04968H5.47996V2.5101C5.47996 3.30719 4.88684 3.95562 4.1579 3.95562H3.65564C2.92668 3.95562 2.33359 3.30719 2.33359 2.5101V2.04968H1.25C0.559765 2.04968 0 2.57449 0 3.22151V18.8283C0 19.4765 0.559732 20.0001 1.25 20.0001H16.6092C17.3001 20.0001 17.8592 19.4764 17.8592 18.8283V3.22167C17.8594 2.57465 17.3003 2.04968 16.6094 2.04968ZM16.2218 18.28L1.59197 18.2743V5.69202H16.2218V18.28Z" fill="black"/>
<path d="M10.4964 8.72421H14.344C14.678 8.72421 14.9481 8.39069 14.9481 7.9785C14.9481 7.56631 14.6779 7.23279 14.344 7.23279H10.4964C10.1625 7.23279 9.89233 7.56631 9.89233 7.9785C9.89233 8.39052 10.1624 8.72421 10.4964 8.72421Z" fill="black"/>
<path d="M10.4964 11.4177H14.344C14.678 11.4177 14.9481 11.0841 14.9481 10.6719C14.9481 10.2598 14.6779 9.92627 14.344 9.92627H10.4964C10.1625 9.92627 9.89233 10.2598 9.89233 10.6719C9.89233 11.0841 10.1624 11.4177 10.4964 11.4177Z" fill="black"/>
<path d="M10.4964 14.1113H14.344C14.678 14.1113 14.9481 13.7777 14.9481 13.3656C14.9481 12.9534 14.6779 12.6199 14.344 12.6199H10.4964C10.1625 12.6199 9.89233 12.9534 9.89233 13.3656C9.89233 13.7777 10.1624 14.1113 10.4964 14.1113Z" fill="black"/>
<path d="M10.4964 16.805H14.344C14.678 16.805 14.9481 16.4715 14.9481 16.0593C14.9481 15.6471 14.6779 15.3136 14.344 15.3136H10.4964C10.1625 15.3136 9.89233 15.6471 9.89233 16.0593C9.89233 16.4715 10.1624 16.805 10.4964 16.805Z" fill="black"/>
<path d="M3.68161 8.72421H7.52919C7.86317 8.72421 8.13326 8.39069 8.13326 7.9785C8.13326 7.56631 7.86301 7.23279 7.52919 7.23279H3.68161C3.3476 7.23279 3.07751 7.56631 3.07751 7.9785C3.07755 8.39052 3.3476 8.72421 3.68161 8.72421Z" fill="black"/>
<path d="M3.68161 11.4177H7.52919C7.86317 11.4177 8.13326 11.0841 8.13326 10.6719C8.13326 10.2598 7.86301 9.92627 7.52919 9.92627H3.68161C3.3476 9.92627 3.07751 10.2598 3.07751 10.6719C3.07755 11.0841 3.3476 11.4177 3.68161 11.4177Z" fill="black"/>
<path d="M3.68161 14.1113H7.52919C7.86317 14.1113 8.13326 13.7777 8.13326 13.3656C8.13326 12.9534 7.86301 12.6199 7.52919 12.6199H3.68161C3.3476 12.6199 3.07751 12.9534 3.07751 13.3656C3.07751 13.7777 3.3476 14.1113 3.68161 14.1113Z" fill="black"/>
<path d="M3.68161 16.805H7.52919C7.86317 16.805 8.13326 16.4715 8.13326 16.0593C8.13326 15.6471 7.86301 15.3136 7.52919 15.3136H3.68161C3.3476 15.3136 3.07751 15.6471 3.07751 16.0593C3.07755 16.4715 3.3476 16.805 3.68161 16.805Z" fill="black"/>
</svg>
