<svg width="28" height="28" viewBox="0 0 28 28" fill="none" xmlns="http://www.w3.org/2000/svg">
<path d="M5.2923 10.5025V0.637673C5.2923 0.285465 5.60225 0 5.98466 0H27.0765C27.4589 0 27.7688 0.285465 27.7688 0.637673V2.71514C27.7688 3.06735 27.4589 3.35281 27.0765 3.35281C26.6941 3.35281 26.3841 3.06735 26.3841 2.71514V1.27535H6.67702V10.5025C6.67702 10.8547 6.36707 11.1402 5.98466 11.1402C5.60225 11.1402 5.2923 10.8547 5.2923 10.5025ZM11.5448 9.90157C11.5401 9.90157 11.5354 9.90157 11.5307 9.90171C11.1483 9.90873 10.8446 10.1999 10.8523 10.552C10.8549 10.6733 10.8608 10.7957 10.8697 10.916C10.8946 11.2526 11.1988 11.5103 11.5598 11.5103C11.5756 11.5103 11.5916 11.5098 11.6076 11.5088C11.9891 11.4848 12.2773 11.1806 12.2513 10.8292C12.2438 10.7293 12.239 10.6274 12.2368 10.5265C12.2292 10.1787 11.9208 9.90157 11.5448 9.90157ZM12.8392 7.8878C13.843 5.89706 15.9418 4.56687 18.3169 4.41631C19.2928 4.35431 20.2459 4.48872 21.1491 4.81556C21.5048 4.9443 21.9069 4.78311 22.0467 4.45528C22.1865 4.12751 22.0114 3.75738 21.6555 3.62857C20.5595 3.23194 19.4044 3.06912 18.2217 3.14401C15.3432 3.32646 12.7996 4.93835 11.5832 7.35067C11.4222 7.67007 11.5727 8.04927 11.9195 8.19757C12.014 8.23795 12.1131 8.25701 12.2107 8.25701C12.472 8.25708 12.722 8.12027 12.8392 7.8878ZM14.1966 15.4475V25.8216C14.1966 27.9389 7.82487 28 7.09828 28C6.37169 28 0 27.9389 0 25.8216V15.4475C0 13.3301 6.37169 13.269 7.09828 13.269C7.82487 13.269 14.1966 13.3302 14.1966 15.4475ZM1.46434 15.4475C1.71166 15.6155 2.41071 15.9216 3.90328 16.1379C4.23992 16.1868 4.48801 16.4539 4.48801 16.7679V19.4736C4.48801 19.8532 4.82327 20.1619 5.23537 20.1619C5.64733 20.1619 5.98258 19.8532 5.98258 19.4736V16.9848C5.98258 16.8138 6.0572 16.6499 6.18952 16.5301C6.32184 16.4102 6.50208 16.3442 6.68663 16.3472C6.82279 16.3494 6.95988 16.3506 7.09835 16.3506C8.57623 16.3506 10.0016 16.2247 11.1119 15.996C12.0667 15.7993 12.5398 15.5788 12.7323 15.4476C12.5398 15.3163 12.0668 15.0958 11.1119 14.8992C10.0016 14.6704 8.5763 14.5445 7.09835 14.5445C5.6204 14.5445 4.19499 14.6704 3.08468 14.8992C2.12977 15.0958 1.65681 15.3163 1.46434 15.4475ZM12.8118 16.8474C11.1086 17.5122 8.32513 17.6103 7.3673 17.6238V19.4736C7.3673 20.5564 6.41092 21.4373 5.23537 21.4373C4.05975 21.4373 3.1033 20.5564 3.1033 19.4736V17.3032C2.41748 17.1796 1.84429 17.0281 1.38479 16.8492V25.7583C1.49749 25.8698 1.95214 26.1367 3.08476 26.37C4.19507 26.5987 5.6204 26.7246 7.09835 26.7246C8.5763 26.7246 10.0016 26.5986 11.1119 26.37C12.2446 26.1367 12.6992 25.8698 12.8119 25.7583V16.8474H12.8118ZM27.0765 15.5293C26.6941 15.5293 26.3841 15.8148 26.3841 16.167V22.8581H22.4603C22.0779 22.8581 21.7679 23.1436 21.7679 23.4958C21.7679 23.848 22.0779 24.1334 22.4603 24.1334H27.0765C27.4589 24.1334 27.7688 23.848 27.7688 23.4958V16.167C27.7688 15.8148 27.4589 15.5293 27.0765 15.5293ZM24.314 13.1285L17.0158 27.5432C16.8984 27.7752 16.6486 27.9115 16.3879 27.9115C16.2899 27.9115 16.1904 27.8923 16.0957 27.8516C15.7491 27.7028 15.5992 27.3234 15.7607 27.0042L23.056 12.5954C22.171 11.9102 21.8556 10.7369 22.3668 9.72685C22.5125 9.43926 22.6498 9.17391 22.7776 8.92685C23.762 7.02474 23.9991 6.48251 23.5058 5.40144C23.3917 5.15133 23.4618 4.86211 23.6806 4.68052C23.8996 4.49892 24.2191 4.46477 24.4773 4.59542C29.0333 6.9004 28.2766 9.64813 27.1084 11.7844V11.7845C26.5648 12.7785 25.4244 13.296 24.314 13.1285ZM24.2334 11.7847C24.8396 12.0369 25.5569 11.7866 25.8718 11.2108C26.6985 9.699 27.2836 8.10404 25.1353 6.51347C25.0963 7.41061 24.6519 8.26927 24.0277 9.47561C23.9014 9.71962 23.7658 9.98178 23.622 10.2658C23.3339 10.8348 23.6021 11.5136 24.2199 11.7789C24.22 11.7789 24.2203 11.779 24.2204 11.7791C24.224 11.7806 24.2276 11.7821 24.2311 11.7836C24.2319 11.784 24.2327 11.7843 24.2334 11.7847Z" fill="#28511C"/>
</svg>
