<svg width="20" height="20" viewBox="0 0 20 20" fill="none" xmlns="http://www.w3.org/2000/svg">
<path d="M15.6444 13.5472C16.3972 12.7475 16.9674 11.7999 17.3245 10.7744C18.7116 10.7535 19.8337 9.61938 19.8337 8.22749C19.8337 7.01468 18.9817 5.99776 17.845 5.74203C16.7704 2.34614 13.5877 0 10 0C6.4138 0 3.22988 2.34658 2.15533 5.7419C1.01849 5.99745 0.166328 7.01455 0.166328 8.22743C0.166328 9.26425 0.789186 10.1577 1.68009 10.5551C1.92822 11.4231 2.59955 12.114 3.45611 12.3887C3.71749 12.8004 4.01837 13.1886 4.35586 13.5471C2.39041 14.954 0.995507 17.0684 0.493203 19.4312C0.46363 19.5702 0.498414 19.7151 0.587825 19.8254C0.677235 19.9358 0.811727 20 0.953816 20H19.0466C19.1887 20 19.3232 19.9359 19.4126 19.8254C19.502 19.715 19.5368 19.5702 19.5072 19.4312C19.0047 17.0684 17.6098 14.954 15.6444 13.5472ZM17.5954 6.65151C18.3333 6.79637 18.8918 7.44779 18.8918 8.22749C18.8918 9.00789 18.3322 9.65975 17.5932 9.80372C17.7005 9.2888 17.7565 8.76088 17.7565 8.22749C17.7565 7.68764 17.7009 7.16054 17.5954 6.65151ZM2.24355 8.22743C2.24355 8.32067 2.24581 8.41372 2.24913 8.50659C2.18766 8.4772 2.11916 8.46031 2.04652 8.46031C1.78645 8.46031 1.57561 8.67109 1.57561 8.93122V9.359C1.28678 9.06848 1.10802 8.66845 1.10802 8.22749C1.10802 7.44773 1.66659 6.79624 2.40453 6.65151C2.29918 7.16054 2.24355 7.68764 2.24355 8.22743ZM1.55576 19.0583V19.0582C2.14685 16.9856 3.50527 15.17 5.3476 14.0157C5.47242 13.9375 5.55348 13.8053 5.5666 13.6586C5.57972 13.5119 5.52347 13.3674 5.41453 13.2683C5.15829 13.0351 4.92221 12.7838 4.70678 12.5175H5.67774C5.82177 12.7192 6.05717 12.8511 6.32389 12.8511C6.76246 12.8511 7.11809 12.4956 7.11809 12.057C7.11809 11.6185 6.76246 11.263 6.32389 11.263C6.06646 11.263 5.83835 11.386 5.69325 11.5758H4.2802C4.20517 11.5758 4.13139 11.5705 4.05887 11.5614C3.49296 10.5521 3.18537 9.40439 3.18537 8.22743C3.18537 4.46976 6.24239 1.41273 10 1.41273C13.7577 1.41273 16.8147 4.46976 16.8147 8.22743C16.8147 10.1417 16.0022 11.9791 14.5857 13.2684C14.4767 13.3675 14.4205 13.512 14.4336 13.6587C14.4467 13.8054 14.5278 13.9375 14.6526 14.0157C16.4949 15.17 17.8533 16.9856 18.4446 19.0583H1.55576Z" fill="black"/>
<path d="M5.37498 7.57005C5.84811 7.57005 6.23166 7.1865 6.23166 6.71337C6.23166 6.24024 5.84811 5.85669 5.37498 5.85669C4.90184 5.85669 4.5183 6.24024 4.5183 6.71337C4.5183 7.1865 4.90184 7.57005 5.37498 7.57005Z" fill="black"/>
<path d="M14.0263 7.75659H5.97384C5.71377 7.75659 5.50293 7.96737 5.50293 8.2275C5.50293 10.7072 7.52031 12.7246 10 12.7246C12.4797 12.7246 14.4972 10.7072 14.4972 8.2275C14.4972 7.96743 14.2863 7.75659 14.0263 7.75659ZM10 11.7827C8.19924 11.7827 6.70689 10.437 6.47583 8.69841H13.5243C13.2932 10.4371 11.8008 11.7827 10 11.7827Z" fill="black"/>
<path d="M14.6252 7.57018C15.0984 7.57018 15.482 7.1866 15.482 6.71343C15.482 6.24027 15.0984 5.85669 14.6252 5.85669C14.1521 5.85669 13.7685 6.24027 13.7685 6.71343C13.7685 7.1866 14.1521 7.57018 14.6252 7.57018Z" fill="black"/>
</svg>
