<svg width="33" height="33" viewBox="0 0 33 33" fill="none" xmlns="http://www.w3.org/2000/svg">
<path d="M16.5 2.80498C8.9375 2.80498 2.75 8.97873 2.75 16.5825C2.75 23.4575 7.7825 29.1638 14.355 30.195V20.57H10.8625V16.5825H14.355V13.5437C14.355 10.0925 16.4038 8.19498 19.5525 8.19498C21.0513 8.19498 22.6188 8.45623 22.6188 8.45623V11.8525H20.8862C19.1812 11.8525 18.645 12.9112 18.645 13.9975V16.5825H22.4675L21.8488 20.57H18.645V30.195C21.885 29.6832 24.8355 28.0301 26.9636 25.5338C29.0917 23.0376 30.2574 19.8627 30.25 16.5825C30.25 8.97873 24.0625 2.80498 16.5 2.80498Z" fill="#2A46D6"/>
</svg>
