<svg width="23" height="23" viewBox="0 0 23 23" fill="none" xmlns="http://www.w3.org/2000/svg">
<path fill-rule="evenodd" clip-rule="evenodd" d="M11.5 0C5.15377 0 0 5.15377 0 11.5C0 17.8462 5.15377 23 11.5 23C17.8462 23 23 17.8462 23 11.5C23 5.15377 17.8462 0 11.5 0ZM11.5 0.884615C17.3677 0.884615 22.1154 5.63235 22.1154 11.5C22.1154 17.3677 17.3677 22.1154 11.5 22.1154C5.63235 22.1154 0.884615 17.3677 0.884615 11.5C0.884615 5.63235 5.63235 0.884615 11.5 0.884615ZM16.3689 8.53477C16.2692 8.53535 16.1725 8.56964 16.0947 8.63208L9.38488 13.808L6.98758 10.8418C6.95208 10.794 6.90728 10.7538 6.85587 10.7237C6.80446 10.6937 6.74751 10.6743 6.68842 10.6667C6.62933 10.6592 6.56933 10.6636 6.51201 10.6798C6.45469 10.6961 6.40124 10.7237 6.35486 10.7611C6.30848 10.7984 6.27012 10.8448 6.2421 10.8974C6.21408 10.9499 6.19696 11.0076 6.19178 11.067C6.18659 11.1263 6.19345 11.1861 6.21193 11.2427C6.23042 11.2993 6.26015 11.3516 6.29935 11.3965L9.23981 15.0385L16.6856 9.33181C16.7601 9.27597 16.815 9.19808 16.8426 9.10921C16.8702 9.02034 16.8691 8.92502 16.8394 8.83683C16.8097 8.74863 16.753 8.67204 16.6772 8.61797C16.6015 8.5639 16.5106 8.53509 16.4176 8.53565L16.3689 8.53477Z" fill="black"/>
</svg>
