<svg width="23" height="25" viewBox="0 0 23 25" fill="none" xmlns="http://www.w3.org/2000/svg">
<path d="M22.1103 23.6122L18.5308 20.0327C20.4023 17.5962 20.2234 14.0805 17.9936 11.8507C17.3444 11.2015 16.577 10.714 15.74 10.4073V4.78707C15.74 4.57142 15.6544 4.36467 15.5018 4.21227L11.5277 0.238134C11.3753 0.0856285 11.1685 0 10.9529 0H0.812929C0.363975 0 0 0.363975 0 0.812929V18.112C0 18.561 0.363975 18.9249 0.812929 18.9249H7.9835C8.27968 19.5474 8.68457 20.1306 9.19916 20.6451C10.3737 21.8197 11.9353 22.4665 13.5964 22.4665C14.9833 22.4665 16.3007 22.0152 17.3816 21.1826L20.9607 24.7619C21.1195 24.9207 21.3275 25 21.5355 25C21.7435 25 21.9516 24.9206 22.1103 24.7619C22.4278 24.4444 22.4278 23.9297 22.1103 23.6122ZM11.7657 2.77539L12.9646 3.97425H11.7657V2.77539ZM1.62586 17.2991V1.62586H10.1399V4.78718C10.1399 5.23613 10.5039 5.6001 10.9528 5.6001H14.1141V10.0508C13.9428 10.0367 13.7702 10.0293 13.5963 10.0293C13.1569 10.0293 12.7245 10.075 12.3043 10.1633H3.03331C2.73404 10.1633 2.49136 10.406 2.49136 10.7053C2.49136 11.0046 2.73404 11.2472 3.03331 11.2472H9.89768C9.6525 11.4294 9.41903 11.6308 9.19916 11.8507C8.91398 12.1359 8.66279 12.4423 8.44471 12.7646H3.03331C2.73404 12.7646 2.49136 13.0073 2.49136 13.3066C2.49136 13.6058 2.73404 13.8485 3.03331 13.8485H7.85967C7.40323 14.9438 7.27295 16.144 7.46946 17.2991H1.62586V17.2991ZM9.16008 15.0678H12.6368C12.936 15.0678 13.1787 14.8251 13.1787 14.5258C13.1787 14.2266 12.936 13.9839 12.6368 13.9839H9.60128C9.80067 13.6317 10.049 13.3 10.3488 13.0003C11.2163 12.1329 12.3696 11.6551 13.5964 11.6551C14.2425 11.6551 14.8677 11.7889 15.442 12.041V18.6984H9.71293C9.02318 17.6055 8.83887 16.2836 9.16008 15.0678ZM10.6639 19.7824H15.9839C16.2831 19.7824 16.5258 19.5397 16.5258 19.2404V12.7108C16.6355 12.802 16.7418 12.8982 16.8439 13.0003C18.6347 14.791 18.6347 17.7048 16.8439 19.4955C15.9764 20.3629 14.8231 20.8407 13.5963 20.8407C12.5126 20.8407 11.4865 20.4673 10.6639 19.7824Z" fill="black"/>
<path d="M3.03332 8.64592H12.7067C13.0059 8.64592 13.2486 8.40323 13.2486 8.10396C13.2486 7.8047 13.0059 7.56201 12.7067 7.56201H3.03332C2.73405 7.56201 2.49136 7.8047 2.49136 8.10396C2.49136 8.40323 2.73405 8.64592 3.03332 8.64592Z" fill="black"/>
</svg>
