<svg width="20" height="20" viewBox="0 0 20 20" fill="none" xmlns="http://www.w3.org/2000/svg">
<path d="M19.6298 16.3482C17.2584 15.3884 17.1682 11.2685 17.1665 11.1645V8.4005C17.1665 5.74029 15.3528 3.45279 12.7755 2.4788C12.77 1.11112 11.5272 0 10.0001 0C8.47296 0 7.23017 1.11118 7.22459 2.47874C4.64741 3.45273 2.83371 5.74022 2.83371 8.40043V11.1644C2.83203 11.2684 2.74175 15.3883 0.370331 16.3482C0.100188 16.4576 -0.0482834 16.7211 0.0141752 16.9809C0.0765609 17.2406 0.332849 17.4262 0.629318 17.4262H6.64109C6.76433 18.0338 7.0849 18.5991 7.5752 19.057C8.2264 19.6651 9.08759 20 9.99997 20C10.9124 20 11.7736 19.6651 12.4247 19.057C12.9151 18.5991 13.2357 18.0337 13.3588 17.4262H19.3706C19.6671 17.4262 19.9233 17.2407 19.9858 16.9809C20.0483 16.7211 19.8999 16.4576 19.6298 16.3482ZM16.506 14.3745C16.7553 15.0519 17.1083 15.7322 17.6088 16.2983H2.39125C2.89172 15.7323 3.2447 15.052 3.49399 14.3745H16.506ZM10.0001 1.12795C10.6908 1.12795 11.2749 1.54396 11.4576 2.11102C10.9868 2.02351 10.4993 1.97736 10.0001 1.97736C9.50081 1.97736 9.01332 2.02347 8.54253 2.11102C8.72531 1.54399 9.30935 1.12795 10.0001 1.12795ZM4.09218 11.1679V8.4004C4.09218 5.48068 6.74242 3.10531 10.0001 3.10531C13.2577 3.10531 15.908 5.48068 15.908 8.4004V11.1725C15.9088 11.2573 15.9235 12.1489 16.1743 13.2465H3.82575C4.07661 12.1479 4.09141 11.2547 4.09218 11.1679ZM10.0001 18.8722C9.03964 18.8722 8.20143 18.2515 7.93238 17.4262H12.0677C11.7986 18.2515 10.9606 18.8722 10.0001 18.8722Z" fill="#28511C"/>
<path d="M10.0001 3.89661C7.29286 3.89661 5.09033 5.87064 5.09033 8.29709C5.09033 8.60856 5.37207 8.86107 5.71959 8.86107C6.0671 8.86107 6.34884 8.60856 6.34884 8.29709C6.34884 6.4926 7.9868 5.02455 10.0002 5.02455C10.3477 5.02455 10.6294 4.77204 10.6294 4.46056C10.6294 4.14906 10.3476 3.89661 10.0001 3.89661Z" fill="#28511C"/>
</svg>
