<svg width="20" height="19" viewBox="0 0 20 19" fill="none" xmlns="http://www.w3.org/2000/svg">
<path d="M18.1059 4.96731C18.167 4.96731 18.167 4.96731 18.2278 4.96731L17.3114 1.4235C17.067 0.384363 15.9668 -0.226733 14.989 0.0788147L1.42323 3.68428C0.384364 3.92872 -0.226732 5.02869 0.0788162 6.00645L1.2399 10.4063V7.77862C1.2399 6.19032 2.5232 4.90702 4.11205 4.90702H18.1059V4.96731Z" fill="black"/>
<path d="M18.1059 5.94507H4.05066C3.0118 5.94507 2.15654 6.80088 2.15654 7.83947V16.7609C2.15654 17.8003 3.01207 18.6553 4.05066 18.6553H18.1059C19.1447 18.6553 20 17.7995 20 16.7609V7.84001C20.0005 6.8006 19.1447 5.94507 18.1059 5.94507ZM18.7172 16.7617C18.7172 17.1287 18.412 17.3726 18.1064 17.3726H4.05121C3.68455 17.3726 3.44039 17.0673 3.44039 16.7615V14.501H18.7786V16.7615L18.7172 16.7617ZM18.7172 10.1008H3.43984V7.84001C3.43984 7.47308 3.74539 7.22892 4.05066 7.22892H18.1059C18.4728 7.22892 18.7167 7.53446 18.7167 7.84001L18.7172 10.1008Z" fill="black"/>
</svg>
