<svg width="20" height="20" viewBox="0 0 20 20" fill="none" xmlns="http://www.w3.org/2000/svg">
<g clip-path="url(#clip0_70_2039)">
<path d="M10 0L9.56445 0.0195312L9.13281 0.0761719L8.70508 0.169922L8.28906 0.302734L7.88672 0.46875L7.5 0.669922L7.13281 0.90625L6.78711 1.17188L6.46289 1.46484L6.16992 1.78711L5.9043 2.13281L5.66992 2.5L5.46875 2.88867L5.30273 3.29102L5.16992 3.70703L5.07617 4.13281L5.01953 4.56641L5 5.00195L5.01758 5.68164L5.07422 6.35938L5.16602 7.03516L5.29492 7.70312L5.45898 8.36133L5.66016 9.01367L5.89844 9.65234L6.16602 10.2754L6.4707 10.8848L6.65234 11.1934L6.86328 11.4844L6.92969 11.5957L6.96484 11.7207L6.96875 11.8477L6.9375 11.9746L6.875 12.0879L6.78711 12.1816L6.67773 12.25L6.55273 12.2871L5.69531 12.4492L4.84375 12.6465L4.00195 12.8789L3.16992 13.1465L2.35156 13.4453L2.03516 13.5918L1.73828 13.7715L1.46484 13.9863L1.2168 14.2305L0.998047 14.5L0.814453 14.7949L0.664062 15.1094L0.464844 15.6523L0.296875 16.209L0.167969 16.7754L0.0742188 17.3457L0.0195312 17.9238L0 18.5039L0.0195312 18.6445L0.0800781 18.7754L0.171875 18.8828L0.292969 18.959L0.427734 19H0.572266L0.707031 18.959L0.828125 18.8828L0.919922 18.7754L0.980469 18.6445L1 18.5039L1.01758 17.9883L1.06641 17.4766L1.14844 16.9648L1.26367 16.4648L1.41211 15.9688L1.58984 15.4863L1.70898 15.2422L1.85938 15.0176L2.03906 14.8164L2.24414 14.6406L2.4707 14.4922L2.71484 14.3789L3.49609 14.0898L4.28711 13.8359L5.08789 13.6152L5.90039 13.4277L6.7168 13.2734L6.94727 13.2168L7.16992 13.123L7.37109 12.9961L7.55078 12.8359L7.70117 12.6523L7.82227 12.4434L7.91016 12.2207L7.95703 11.9863L7.9707 11.748L7.94336 11.5098L7.87891 11.2793L7.7793 11.0625L7.64844 10.8652L7.49023 10.6445L7.35352 10.416L7.07422 9.85547L6.82617 9.2793L6.60938 8.69336L6.42383 8.09375L6.27344 7.48633L6.1543 6.87109L6.06836 6.25195L6.01562 5.62891L6 5.00195L6.01953 4.60938L6.07812 4.2207L6.17188 3.83984L6.30469 3.4707L6.47266 3.11523L6.67383 2.7793L6.9082 2.46289L7.16992 2.17188L7.46289 1.9082L7.77734 1.67383L8.11523 1.47461L8.4707 1.30469L8.83984 1.17383L9.21875 1.07812L9.60742 1.01953L10 1L10.3926 1.01953L10.7812 1.07812L11.1602 1.17383L11.5293 1.30469L11.8867 1.47461L12.2227 1.67383L12.5371 1.9082L12.8301 2.17188L13.0918 2.46289L13.3262 2.7793L13.5273 3.11523L13.6953 3.4707L13.8281 3.83984L13.9238 4.2207L13.9824 4.60938L14 5.00195L13.9844 5.62891L13.9316 6.25195L13.8457 6.87109L13.7285 7.48633L13.5762 8.09375L13.3906 8.69336L13.1738 9.2793L12.9258 9.85547L12.6465 10.416L12.5098 10.6445L12.3516 10.8652L12.2207 11.0625L12.1211 11.2793L12.0566 11.5098L12.0293 11.748L12.043 11.9863L12.0918 12.2207L12.1777 12.4434L12.2988 12.6523L12.4512 12.8359L12.6289 12.9961L12.8301 13.123L13.0293 13.207C13.0592 12.8588 13.13 12.5216 13.2559 12.209L13.2129 12.1816L13.125 12.0879L13.0625 11.9746L13.0332 11.8477L13.0352 11.7207L13.0703 11.5957L13.1367 11.4844L13.3477 11.1934L13.5293 10.8848L13.834 10.2754L14.1035 9.65234L14.3398 9.01367L14.541 8.36133L14.7051 7.70312L14.834 7.03516L14.9258 6.35938L14.9824 5.68164L15 5.00195L14.9824 4.56641L14.9238 4.13281L14.8301 3.70703L14.6973 3.29102L14.5312 2.88867L14.3301 2.5L14.0977 2.13281L13.8301 1.78711L13.5371 1.46484L13.2129 1.17188L12.8691 0.90625L12.5 0.669922L12.1133 0.46875L11.7109 0.302734L11.2949 0.169922L10.8672 0.0761719L10.4355 0.0195312L10 0ZM16.5 11C15.1252 11 14 12.1252 14 13.5V15H13V20H20V15H19V13.5C19 12.1252 17.8748 11 16.5 11ZM16.5 12C17.3343 12 18 12.6657 18 13.5V15H15V13.5C15 12.6657 15.6657 12 16.5 12ZM14 16H19V19H14V16Z" fill="#222222"/>
</g>
<defs>
<clipPath id="clip0_70_2039">
<rect width="20" height="20" fill="white"/>
</clipPath>
</defs>
</svg>
