<svg width="23" height="23" viewBox="0 0 23 23" fill="none" xmlns="http://www.w3.org/2000/svg">
<path d="M0 9.56921C0 14.8483 4.29484 19.1384 9.56921 19.1384C11.9992 19.1384 14.2219 18.2248 15.9126 16.7273L22.0111 22.8258C22.1241 22.9388 22.2701 22.9953 22.4208 22.9953C22.5715 22.9953 22.7174 22.9388 22.8305 22.8258C23.0565 22.5997 23.0565 22.2371 22.8305 22.0111L16.7273 15.9126C18.2248 14.222 19.1384 12.0039 19.1384 9.56921C19.1384 4.29013 14.8436 0 9.56921 0C4.29484 0 0 4.29013 0 9.56921ZM17.9846 9.56921C17.9846 14.2078 14.2078 17.9846 9.56921 17.9846C4.93059 17.9846 1.15377 14.2078 1.15377 9.56921C1.15377 4.93059 4.93059 1.15377 9.56921 1.15377C14.2078 1.15377 17.9846 4.92588 17.9846 9.56921Z" fill="black"/>
</svg>
