<svg width="344" height="20" viewBox="0 0 344 20" fill="none" xmlns="http://www.w3.org/2000/svg">
<path d="M169.145 7.86C169.808 7.86 170.391 8.00467 170.895 8.294C171.409 8.58333 171.81 9.00333 172.099 9.554C172.389 10.0953 172.533 10.744 172.533 11.5C172.533 12.256 172.389 12.9093 172.099 13.46C171.81 14.0013 171.409 14.4167 170.895 14.706C170.391 14.9953 169.808 15.14 169.145 15.14C168.492 15.14 167.909 14.9953 167.395 14.706C166.882 14.4167 166.481 14.0013 166.191 13.46C165.902 12.9093 165.757 12.256 165.757 11.5C165.757 10.744 165.902 10.0953 166.191 9.554C166.481 9.00333 166.882 8.58333 167.395 8.294C167.909 8.00467 168.492 7.86 169.145 7.86ZM169.145 8.826C168.669 8.826 168.263 8.93333 167.927 9.148C167.591 9.36267 167.33 9.67067 167.143 10.072C166.966 10.464 166.877 10.94 166.877 11.5C166.877 12.0507 166.966 12.5267 167.143 12.928C167.33 13.3293 167.591 13.6373 167.927 13.852C168.263 14.0667 168.669 14.174 169.145 14.174C169.621 14.174 170.027 14.0667 170.363 13.852C170.699 13.6373 170.956 13.3293 171.133 12.928C171.32 12.5267 171.413 12.0507 171.413 11.5C171.413 10.94 171.32 10.464 171.133 10.072C170.956 9.67067 170.699 9.36267 170.363 9.148C170.027 8.93333 169.621 8.826 169.145 8.826ZM174.642 15V8H175.552L175.706 9.148C175.902 8.71867 176.186 8.39667 176.56 8.182C176.942 7.96733 177.404 7.86 177.946 7.86C178.067 7.86 178.198 7.86933 178.338 7.888C178.487 7.90667 178.613 7.944 178.716 8L178.52 9.022C178.417 8.98467 178.305 8.95667 178.184 8.938C178.062 8.91933 177.89 8.91 177.666 8.91C177.376 8.91 177.082 8.994 176.784 9.162C176.494 9.33 176.252 9.58667 176.056 9.932C175.86 10.268 175.762 10.6973 175.762 11.22V15H174.642Z" fill="#888888"/>
<line y1="9.5" x2="146.519" y2="9.5" stroke="#A4A4A4"/>
<line x1="197.481" y1="9.5" x2="344" y2="9.5" stroke="#A4A4A4"/>
</svg>
