<svg width="55" height="46" viewBox="0 0 55 46" fill="none" xmlns="http://www.w3.org/2000/svg">
<path d="M40.3851 35.485C37.7496 35.4849 35.6054 33.5391 35.6054 31.1475V23.9441C35.6054 21.5524 37.7496 19.6066 40.3851 19.6066H52.8394C52.9148 19.6066 52.9898 19.6087 53.0644 19.6118V12.436C53.0644 10.5889 51.4144 9.09155 49.379 9.09155H3.68553C1.65001 9.09144 0 10.5888 0 12.4359V42.6555C0 44.5026 1.65001 46.0001 3.68553 46.0001H49.379C51.4144 46.0001 53.0644 44.5027 53.0644 42.6555V35.4798C52.9898 35.4829 52.9148 35.485 52.8394 35.485H40.3851Z" fill="white"/>
<path d="M52.8394 21.9832H40.3852C39.1919 21.9832 38.2246 22.861 38.2246 23.9439V31.1473C38.2246 32.2301 39.1919 33.108 40.3852 33.108H52.8394C54.0327 33.108 55.0001 32.2303 55.0001 31.1473V23.9439C55.0001 22.8609 54.0327 21.9832 52.8394 21.9832ZM44.6767 30.3755C42.9544 30.3755 41.5582 29.1085 41.5582 27.5455C41.5582 25.9825 42.9544 24.7154 44.6767 24.7154C46.399 24.7154 47.7952 25.9825 47.7952 27.5455C47.7952 29.1085 46.399 30.3755 44.6767 30.3755Z" fill="white"/>
<path d="M42.9618 2.96508C42.1372 0.700308 39.4457 -0.529065 36.9502 0.219183L18.2271 5.83257H44.0057L42.9618 2.96508Z" fill="white"/>
</svg>
